<svg width="715" height="563" viewBox="0 0 715 563" fill="none" xmlns="http://www.w3.org/2000/svg">
<path d="M372.857 455.807L447.573 447.554V495.934L372.857 486.711C372.857 486.711 371.566 486.717 371.564 471.352C371.563 455.807 372.857 455.807 372.857 455.807Z" fill="url(#paint0_linear_907_471)"/>
<path d="M450.284 471.744C450.284 485.104 449.068 495.934 447.568 495.934C446.068 495.934 444.852 485.104 444.852 471.744C444.852 458.384 446.068 447.554 447.568 447.554C449.068 447.554 450.284 458.384 450.284 471.744Z" fill="#D9D9D9"/>
<path d="M372.857 72.7194L447.573 64.4669V112.846L372.857 103.624C372.857 103.624 371.566 103.629 371.564 88.2646C371.563 72.7194 372.857 72.7194 372.857 72.7194Z" fill="url(#paint1_linear_907_471)"/>
<path d="M450.284 88.6565C450.284 102.016 449.068 112.846 447.568 112.846C446.068 112.846 444.852 102.016 444.852 88.6565C444.852 75.297 446.068 64.4669 447.568 64.4669C449.068 64.4669 450.284 75.297 450.284 88.6565Z" fill="#D9D9D9"/>
<path d="M39.3076 190.563H70.7954L94.1044 237.479V324.399L70.7954 370.563H39.3076L53.7936 310.451L39.3076 280.563L53.7936 252.317L39.3076 190.563Z" fill="#A7A7A7"/>
<path d="M333.626 558.748C333.174 560.793 334.904 562.66 336.978 562.365L376.256 556.775C378.506 556.454 380.461 555.062 381.498 553.04L479.634 361.747L368.292 360.445C368.292 360.445 375.564 363.536 375.564 368.885L333.626 558.748Z" fill="#A7A7A7"/>
<path d="M333.626 3.648C333.174 1.60268 334.904 -0.264266 336.978 0.03088L376.256 5.62127C378.506 5.94151 380.461 7.33415 381.498 9.35627L479.634 200.649L368.292 201.951C368.292 201.951 375.564 198.86 375.564 193.511L333.626 3.648Z" fill="#A7A7A7"/>
<path d="M206.777 216.282C367.684 191.866 569.532 189.944 644.613 216.455C679.869 228.904 714.882 242.647 714.882 280.536C714.882 318.424 679.238 331.65 644.613 343.815C569.532 370.192 368.013 368.632 206.777 344.789C152.314 336.736 29.0093 323.413 29.0093 280.992C29.0093 239.529 152.345 224.542 206.777 216.282Z" fill="#D9D9D9"/>
<path d="M168.808 316.491C168.997 314.29 170.935 312.66 173.136 312.849L175.68 313.068C177.881 313.257 179.511 315.195 179.322 317.396L178.751 324.028C178.562 326.229 176.624 327.86 174.423 327.671L171.88 327.452C169.679 327.262 168.048 325.325 168.238 323.124L168.808 316.491Z" fill="#9D9D9D"/>
<path d="M169.036 242.57C169.266 244.767 171.233 246.361 173.43 246.131L175.969 245.865C178.166 245.635 179.761 243.668 179.531 241.471L178.837 234.85C178.607 232.653 176.64 231.058 174.443 231.288L171.904 231.554C169.707 231.784 168.112 233.752 168.342 235.949L169.036 242.57Z" fill="#9D9D9D"/>
<path d="M185.135 318.512C185.272 316.307 187.171 314.631 189.376 314.768L191.923 314.926C194.128 315.063 195.805 316.961 195.668 319.166L195.256 325.81C195.119 328.015 193.22 329.691 191.015 329.554L188.468 329.396C186.263 329.259 184.586 327.361 184.723 325.156L185.135 318.512Z" fill="#9D9D9D"/>
<path d="M185.504 240.736C185.765 242.93 187.754 244.497 189.948 244.236L192.483 243.935C194.677 243.675 196.244 241.685 195.984 239.492L195.199 232.881C194.938 230.688 192.949 229.12 190.755 229.381L188.22 229.682C186.026 229.942 184.459 231.932 184.72 234.126L185.504 240.736Z" fill="#9D9D9D"/>
<path d="M201.534 320.195C201.66 317.99 203.55 316.304 205.756 316.43L208.304 316.576C210.51 316.702 212.195 318.593 212.069 320.798L211.688 327.444C211.562 329.65 209.672 331.335 207.466 331.209L204.918 331.063C202.712 330.937 201.027 329.046 201.153 326.841L201.534 320.195Z" fill="#9D9D9D"/>
<path d="M201.807 238.933C202.002 241.133 203.945 242.758 206.145 242.563L208.688 242.336C210.889 242.141 212.514 240.198 212.318 237.998L211.728 231.367C211.532 229.167 209.589 227.542 207.389 227.737L204.846 227.964C202.646 228.159 201.021 230.102 201.216 232.302L201.807 238.933Z" fill="#9D9D9D"/>
<path d="M217.904 322.131C218.003 319.924 219.872 318.215 222.079 318.314L224.629 318.427C226.836 318.526 228.545 320.395 228.446 322.602L228.149 329.252C228.051 331.459 226.182 333.168 223.975 333.07L221.424 332.956C219.218 332.857 217.508 330.988 217.607 328.781L217.904 322.131Z" fill="#9D9D9D"/>
<path d="M218.201 237.034C218.385 239.235 220.319 240.871 222.52 240.687L225.064 240.475C227.266 240.291 228.901 238.357 228.718 236.156L228.164 229.522C227.98 227.321 226.047 225.685 223.845 225.869L221.301 226.081C219.1 226.265 217.464 228.199 217.648 230.4L218.201 237.034Z" fill="#9D9D9D"/>
<path d="M234.318 323.768C234.416 321.561 236.284 319.851 238.491 319.948L241.041 320.061C243.248 320.159 244.958 322.027 244.861 324.234L244.567 330.884C244.469 333.091 242.601 334.801 240.394 334.704L237.844 334.591C235.637 334.493 233.927 332.625 234.024 330.418L234.318 323.768Z" fill="#9D9D9D"/>
<path d="M234.495 235.231C234.605 237.438 236.483 239.137 238.69 239.026L241.239 238.899C243.446 238.789 245.145 236.911 245.035 234.704L244.702 228.056C244.592 225.85 242.714 224.15 240.508 224.261L237.958 224.388C235.752 224.498 234.053 226.376 234.163 228.583L234.495 235.231Z" fill="#9D9D9D"/>
<path d="M250.735 325.492C250.834 323.285 252.703 321.575 254.91 321.674L257.46 321.787C259.667 321.886 261.376 323.755 261.278 325.962L260.981 332.612C260.883 334.819 259.014 336.528 256.807 336.43L254.257 336.316C252.05 336.218 250.341 334.349 250.439 332.142L250.735 325.492Z" fill="#9D9D9D"/>
<path d="M250.921 233.52C251.037 235.726 252.92 237.42 255.126 237.303L257.675 237.169C259.882 237.052 261.576 235.17 261.459 232.964L261.108 226.316C260.992 224.11 259.109 222.416 256.903 222.533L254.354 222.667C252.148 222.783 250.454 224.666 250.57 226.872L250.921 233.52Z" fill="#9D9D9D"/>
<path d="M267.151 326.992C267.25 324.785 269.12 323.076 271.327 323.175L273.877 323.29C276.084 323.389 277.792 325.258 277.693 327.465L277.394 334.115C277.295 336.322 275.426 338.031 273.219 337.932L270.669 337.817C268.462 337.718 266.753 335.849 266.852 333.642L267.151 326.992Z" fill="#9D9D9D"/>
<path d="M267.303 231.971C267.399 234.178 269.266 235.889 271.473 235.793L274.024 235.682C276.231 235.586 277.942 233.719 277.846 231.512L277.556 224.861C277.46 222.654 275.593 220.943 273.386 221.039L270.835 221.15C268.628 221.246 266.917 223.114 267.013 225.321L267.303 231.971Z" fill="#9D9D9D"/>
<path d="M283.543 328.525C283.627 326.318 285.485 324.596 287.692 324.681L290.243 324.778C292.451 324.862 294.172 326.72 294.088 328.927L293.835 335.579C293.751 337.787 291.893 339.508 289.685 339.424L287.134 339.327C284.927 339.243 283.206 337.385 283.29 335.177L283.543 328.525Z" fill="#9D9D9D"/>
<path d="M283.698 230.442C283.781 232.65 285.638 234.372 287.846 234.289L290.397 234.193C292.604 234.109 294.326 232.252 294.243 230.045L293.993 223.393C293.91 221.185 292.053 219.463 289.845 219.546L287.294 219.642C285.086 219.726 283.364 221.583 283.447 223.79L283.698 230.442Z" fill="#9D9D9D"/>
<path d="M299.866 330.361C299.891 328.152 301.702 326.382 303.911 326.407L306.464 326.436C308.673 326.461 310.443 328.272 310.418 330.481L310.342 337.138C310.317 339.347 308.506 341.117 306.297 341.092L303.744 341.063C301.535 341.037 299.765 339.226 299.79 337.017L299.866 330.361Z" fill="#9D9D9D"/>
<path d="M300.072 228.684C300.129 230.892 301.965 232.636 304.173 232.579L306.725 232.513C308.934 232.456 310.678 230.62 310.621 228.411L310.449 221.757C310.392 219.549 308.556 217.804 306.347 217.861L303.795 217.927C301.587 217.984 299.843 219.821 299.9 222.029L300.072 228.684Z" fill="#9D9D9D"/>
<path d="M316.244 331.809C316.244 329.6 318.035 327.809 320.244 327.809H322.796C325.006 327.809 326.796 329.6 326.796 331.809V338.466C326.796 340.675 325.006 342.466 322.796 342.466H320.244C318.035 342.466 316.244 340.675 316.244 338.466V331.809Z" fill="#9D9D9D"/>
<path d="M316.4 227.16C316.4 229.369 318.191 231.16 320.4 231.16H322.953C325.162 231.16 326.953 229.369 326.953 227.16V220.503C326.953 218.294 325.162 216.503 322.953 216.503H320.4C318.191 216.503 316.4 218.294 316.4 220.503V227.16Z" fill="#9D9D9D"/>
<path d="M332.659 333.052C332.659 330.843 334.45 329.052 336.659 329.052H339.211C341.421 329.052 343.211 330.843 343.211 333.052V339.708C343.211 341.918 341.421 343.708 339.211 343.708H336.659C334.45 343.708 332.659 341.918 332.659 339.708V333.052Z" fill="#9D9D9D"/>
<path d="M332.815 225.918C332.815 228.127 334.606 229.918 336.815 229.918H339.368C341.577 229.918 343.368 228.127 343.368 225.918V219.261C343.368 217.052 341.577 215.261 339.368 215.261H336.815C334.606 215.261 332.815 217.052 332.815 219.261V225.918Z" fill="#9D9D9D"/>
<path d="M349.075 334.306C349.075 332.096 350.866 330.306 353.075 330.306H355.627C357.837 330.306 359.627 332.096 359.627 334.306V340.962C359.627 343.171 357.837 344.962 355.627 344.962H353.075C350.866 344.962 349.075 343.171 349.075 340.962V334.306Z" fill="#9D9D9D"/>
<path d="M349.231 224.664C349.231 226.873 351.022 228.664 353.231 228.664H355.784C357.993 228.664 359.784 226.873 359.784 224.664V218.007C359.784 215.798 357.993 214.007 355.784 214.007H353.231C351.022 214.007 349.231 215.798 349.231 218.007V224.664Z" fill="#9D9D9D"/>
<path d="M365.49 335.459C365.49 333.25 367.281 331.459 369.49 331.459H372.042C374.252 331.459 376.042 333.25 376.042 335.459V342.116C376.042 344.325 374.252 346.116 372.042 346.116H369.49C367.281 346.116 365.49 344.325 365.49 342.116V335.459Z" fill="#9D9D9D"/>
<path d="M365.646 223.51C365.646 225.72 367.437 227.51 369.646 227.51H372.199C374.408 227.51 376.199 225.72 376.199 223.51V216.854C376.199 214.645 374.408 212.854 372.199 212.854H369.646C367.437 212.854 365.646 214.645 365.646 216.854V223.51Z" fill="#9D9D9D"/>
<path d="M381.906 336.507C381.906 334.297 383.697 332.507 385.906 332.507H388.458C390.668 332.507 392.458 334.297 392.458 336.507V343.163C392.458 345.372 390.668 347.163 388.458 347.163H385.906C383.697 347.163 381.906 345.372 381.906 343.163V336.507Z" fill="#9D9D9D"/>
<path d="M382.062 222.463C382.062 224.672 383.853 226.463 386.062 226.463H388.615C390.824 226.463 392.615 224.672 392.615 222.463V215.806C392.615 213.597 390.824 211.806 388.615 211.806H386.062C383.853 211.806 382.062 213.597 382.062 215.806V222.463Z" fill="#9D9D9D"/>
<path d="M398.321 337.431C398.321 335.222 400.112 333.431 402.321 333.431H404.874C407.083 333.431 408.874 335.222 408.874 337.431V344.088C408.874 346.297 407.083 348.088 404.874 348.088H402.321C400.112 348.088 398.321 346.297 398.321 344.088V337.431Z" fill="#9D9D9D"/>
<path d="M398.477 221.538C398.477 223.747 400.268 225.538 402.477 225.538H405.03C407.239 225.538 409.03 223.747 409.03 221.538V214.881C409.03 212.672 407.239 210.881 405.03 210.881H402.477C400.268 210.881 398.477 212.672 398.477 214.881V221.538Z" fill="#9D9D9D"/>
<path d="M414.737 338.156C414.737 335.947 416.528 334.156 418.737 334.156H421.29C423.499 334.156 425.29 335.947 425.29 338.156V344.812C425.29 347.022 423.499 348.812 421.29 348.812H418.737C416.528 348.812 414.737 347.022 414.737 344.812V338.156Z" fill="#9D9D9D"/>
<path d="M414.893 220.814C414.893 223.023 416.684 224.814 418.893 224.814H421.446C423.655 224.814 425.446 223.023 425.446 220.814V214.157C425.446 211.948 423.655 210.157 421.446 210.157H418.893C416.684 210.157 414.893 211.948 414.893 214.157V220.814Z" fill="#9D9D9D"/>
<path d="M431.152 338.732C431.152 336.523 432.943 334.732 435.152 334.732H437.705C439.914 334.732 441.705 336.523 441.705 338.732V345.389C441.705 347.598 439.914 349.389 437.705 349.389H435.152C432.943 349.389 431.152 347.598 431.152 345.389V338.732Z" fill="#9D9D9D"/>
<path d="M431.308 220.237C431.308 222.447 433.099 224.237 435.308 224.237H437.861C440.07 224.237 441.861 222.447 441.861 220.237V213.581C441.861 211.372 440.07 209.581 437.861 209.581H435.308C433.099 209.581 431.308 211.372 431.308 213.581V220.237Z" fill="#9D9D9D"/>
<path d="M447.568 339.003C447.568 336.793 449.359 335.003 451.568 335.003H454.121C456.33 335.003 458.121 336.793 458.121 339.003V345.659C458.121 347.868 456.33 349.659 454.121 349.659H451.568C449.359 349.659 447.568 347.868 447.568 345.659V339.003Z" fill="#9D9D9D"/>
<path d="M447.724 219.967C447.724 222.176 449.515 223.967 451.724 223.967H454.277C456.486 223.967 458.277 222.176 458.277 219.967V213.31C458.277 211.101 456.486 209.31 454.277 209.31H451.724C449.515 209.31 447.724 211.101 447.724 213.31V219.967Z" fill="#9D9D9D"/>
<path d="M463.983 338.817C463.983 336.608 465.774 334.817 467.983 334.817H470.536C472.745 334.817 474.536 336.608 474.536 338.817V345.474C474.536 347.683 472.745 349.474 470.536 349.474H467.983C465.774 349.474 463.983 347.683 463.983 345.474V338.817Z" fill="#9D9D9D"/>
<path d="M464.139 220.153C464.139 222.362 465.93 224.153 468.139 224.153H470.692C472.901 224.153 474.692 222.362 474.692 220.153V213.496C474.692 211.287 472.901 209.496 470.692 209.496H468.139C465.93 209.496 464.139 211.287 464.139 213.496V220.153Z" fill="#9D9D9D"/>
<path d="M480.399 338.286C480.399 336.077 482.19 334.286 484.399 334.286H486.952C489.161 334.286 490.952 336.077 490.952 338.286V344.943C490.952 347.152 489.161 348.943 486.952 348.943H484.399C482.19 348.943 480.399 347.152 480.399 344.943V338.286Z" fill="#9D9D9D"/>
<path d="M480.555 220.684C480.555 222.893 482.346 224.684 484.555 224.684H487.108C489.317 224.684 491.108 222.893 491.108 220.684V214.027C491.108 211.818 489.317 210.027 487.108 210.027H484.555C482.346 210.027 480.555 211.818 480.555 214.027V220.684Z" fill="#9D9D9D"/>
<path d="M496.814 337.437C496.814 335.228 498.605 333.437 500.814 333.437H503.367C505.576 333.437 507.367 335.228 507.367 337.437V344.094C507.367 346.303 505.576 348.094 503.367 348.094H500.814C498.605 348.094 496.814 346.303 496.814 344.094V337.437Z" fill="#9D9D9D"/>
<path d="M496.97 221.533C496.97 223.742 498.761 225.533 500.97 225.533H503.523C505.732 225.533 507.523 223.742 507.523 221.533V214.876C507.523 212.667 505.732 210.876 503.523 210.876H500.97C498.761 210.876 496.97 212.667 496.97 214.876V221.533Z" fill="#9D9D9D"/>
<path d="M513.23 336.388C513.23 334.179 515.021 332.388 517.23 332.388H519.783C521.992 332.388 523.783 334.179 523.783 336.388V343.045C523.783 345.254 521.992 347.045 519.783 347.045H517.23C515.021 347.045 513.23 345.254 513.23 343.045V336.388Z" fill="#9D9D9D"/>
<path d="M513.386 222.581C513.386 224.79 515.177 226.581 517.386 226.581H519.939C522.148 226.581 523.939 224.79 523.939 222.581V215.924C523.939 213.715 522.148 211.924 519.939 211.924H517.386C515.177 211.924 513.386 213.715 513.386 215.924V222.581Z" fill="#9D9D9D"/>
<path d="M529.645 334.99C529.645 332.781 531.436 330.99 533.645 330.99H536.198C538.407 330.99 540.198 332.781 540.198 334.99V341.647C540.198 343.856 538.407 345.647 536.198 345.647H533.645C531.436 345.647 529.645 343.856 529.645 341.647V334.99Z" fill="#9D9D9D"/>
<path d="M529.801 223.979C529.801 226.189 531.592 227.979 533.801 227.979H536.354C538.563 227.979 540.354 226.189 540.354 223.979V217.323C540.354 215.114 538.563 213.323 536.354 213.323H533.801C531.592 213.323 529.801 215.114 529.801 217.323V223.979Z" fill="#9D9D9D"/>
<path d="M546.061 333.392C546.061 331.183 547.852 329.392 550.061 329.392H552.614C554.823 329.392 556.614 331.183 556.614 333.392V340.049C556.614 342.258 554.823 344.049 552.614 344.049H550.061C547.852 344.049 546.061 342.258 546.061 340.049V333.392Z" fill="#9D9D9D"/>
<path d="M546.217 225.577C546.217 227.787 548.008 229.577 550.217 229.577H552.77C554.979 229.577 556.77 227.787 556.77 225.577V218.921C556.77 216.712 554.979 214.921 552.77 214.921H550.217C548.008 214.921 546.217 216.712 546.217 218.921V225.577Z" fill="#9D9D9D"/>
<path d="M562.476 331.544C562.476 329.335 564.267 327.544 566.476 327.544H569.029C571.238 327.544 573.029 329.335 573.029 331.544V338.201C573.029 340.41 571.238 342.201 569.029 342.201H566.476C564.267 342.201 562.476 340.41 562.476 338.201V331.544Z" fill="#9D9D9D"/>
<path d="M562.632 227.425C562.632 229.634 564.423 231.425 566.632 231.425H569.185C571.394 231.425 573.185 229.634 573.185 227.425V220.768C573.185 218.559 571.394 216.768 569.185 216.768H566.632C564.423 216.768 562.632 218.559 562.632 220.768V227.425Z" fill="#9D9D9D"/>
<path d="M578.892 329.547C578.892 327.338 580.683 325.547 582.892 325.547H585.445C587.654 325.547 589.445 327.338 589.445 329.547V336.204C589.445 338.413 587.654 340.204 585.445 340.204H582.892C580.683 340.204 578.892 338.413 578.892 336.204V329.547Z" fill="#9D9D9D"/>
<path d="M579.048 229.423C579.048 231.632 580.839 233.423 583.048 233.423H585.601C587.81 233.423 589.601 231.632 589.601 229.423V222.766C589.601 220.557 587.81 218.766 585.601 218.766H583.048C580.839 218.766 579.048 220.557 579.048 222.766V229.423Z" fill="#9D9D9D"/>
<path d="M595.307 326.977C595.307 324.768 597.098 322.977 599.307 322.977H601.859C604.069 322.977 605.859 324.768 605.859 326.977V333.634C605.859 335.843 604.069 337.634 601.859 337.634H599.307C597.098 337.634 595.307 335.843 595.307 333.634V326.977Z" fill="#9D9D9D"/>
<path d="M595.463 231.992C595.463 234.202 597.254 235.992 599.463 235.992H602.016C604.225 235.992 606.016 234.202 606.016 231.992V225.336C606.016 223.127 604.225 221.336 602.016 221.336H599.463C597.254 221.336 595.463 223.127 595.463 225.336V231.992Z" fill="#9D9D9D"/>
<path d="M611.721 324.407C611.721 322.198 613.512 320.407 615.721 320.407H618.274C620.483 320.407 622.274 322.198 622.274 324.407V331.064C622.274 333.273 620.483 335.064 618.274 335.064H615.721C613.512 335.064 611.721 333.273 611.721 331.064V324.407Z" fill="#9D9D9D"/>
<path d="M611.877 234.562C611.877 236.771 613.668 238.562 615.877 238.562H618.43C620.639 238.562 622.43 236.771 622.43 234.562V227.906C622.43 225.696 620.639 223.906 618.43 223.906H615.877C613.668 223.906 611.877 225.696 611.877 227.906V234.562Z" fill="#9D9D9D"/>
<path d="M628.136 321.838C628.136 319.628 629.927 317.838 632.136 317.838H634.688C636.898 317.838 638.688 319.628 638.688 321.838V328.494C638.688 330.703 636.898 332.494 634.688 332.494H632.136C629.927 332.494 628.136 330.703 628.136 328.494V321.838Z" fill="#9D9D9D"/>
<path d="M628.292 237.132C628.292 239.341 630.083 241.132 632.292 241.132H634.845C637.054 241.132 638.845 239.341 638.845 237.132V230.475C638.845 228.266 637.054 226.475 634.845 226.475H632.292C630.083 226.475 628.292 228.266 628.292 230.475V237.132Z" fill="#9D9D9D"/>
<path d="M677.901 288.124C678.46 286.057 680.282 284.364 682.424 284.364H686.411C687.714 284.364 688.661 285.585 688.296 286.836C687.202 290.595 684.88 297.787 681.978 302.29C678.06 308.369 673.701 312.226 671.438 313.994C670.477 314.744 669.21 314.895 668.057 314.5L663.224 312.842C661.758 312.339 661.382 310.42 662.533 309.381C665.791 306.437 671.201 301.299 673.594 297.596C676 293.873 677.252 290.522 677.901 288.124Z" fill="#9D9D9D"/>
<path d="M677.901 273.445C678.46 275.512 680.282 277.205 682.424 277.205L686.411 277.205C687.714 277.205 688.661 275.984 688.296 274.733C687.202 270.974 684.88 263.782 681.978 259.279C678.06 253.2 673.701 249.343 671.438 247.575C670.477 246.825 669.21 246.674 668.057 247.069L663.224 248.727C661.758 249.23 661.382 251.149 662.533 252.188C665.791 255.132 671.201 260.27 673.594 263.973C676 267.696 677.252 271.047 677.901 273.445Z" fill="#9D9D9D"/>
<path d="M1.69743 282.556C-0.578212 282.208 -0.560453 278.922 1.71882 278.599L26.964 275.014C27.2462 274.974 27.5318 274.964 27.816 274.985L47.3503 276.403C49.4416 276.555 51.0607 278.295 51.0607 280.392V281.314C51.0607 283.431 49.4109 285.182 47.2975 285.307L27.8115 286.463C27.5303 286.479 27.2481 286.466 26.9696 286.424L1.69743 282.556Z" fill="#9D9D9D"/>
<defs>
<linearGradient id="paint0_linear_907_471" x1="512.975" y1="0" x2="512.975" y2="562.396" gradientUnits="userSpaceOnUse">
<stop stop-color="#BABABA"/>
<stop offset="0.504808" stop-color="#D9D9D9"/>
<stop offset="1" stop-color="#737373"/>
</linearGradient>
<linearGradient id="paint1_linear_907_471" x1="512.975" y1="0" x2="512.975" y2="562.396" gradientUnits="userSpaceOnUse">
<stop stop-color="#BABABA"/>
<stop offset="0.504808" stop-color="#D9D9D9"/>
<stop offset="1" stop-color="#737373"/>
</linearGradient>
</defs>
</svg>
