<svg width="24" height="24" viewBox="0 0 24 24" fill="none" xmlns="http://www.w3.org/2000/svg">
<path d="M11.25 17C11.25 17.4142 11.5858 17.75 12 17.75C12.4142 17.75 12.75 17.4142 12.75 17H11.25ZM15.25 9.75001C15.25 10.1642 15.5858 10.5 16 10.5C16.4142 10.5 16.75 10.1642 16.75 9.75001H15.25ZM7.25 9.75001C7.25 10.1642 7.58579 10.5 8 10.5C8.41421 10.5 8.75 10.1642 8.75 9.75001H7.25ZM9.5 16.25C9.08579 16.25 8.75 16.5858 8.75 17C8.75 17.4142 9.08579 17.75 9.5 17.75V16.25ZM15 17.75C15.4142 17.75 15.75 17.4142 15.75 17C15.75 16.5858 15.4142 16.25 15 16.25V17.75ZM10 7.75001H12V6.25001H10V7.75001ZM12 7.75001H14V6.25001H12V7.75001ZM12.75 17V7.00001H11.25V17H12.75ZM15.25 9.22223V9.75001H16.75V9.22223H15.25ZM7.25 9.22223V9.75001H8.75V9.22223H7.25ZM14 7.75001C14.4949 7.75001 14.7824 7.75197 14.9865 7.78246C15.0783 7.79618 15.121 7.81181 15.1376 7.81941C15.148 7.82416 15.1477 7.82504 15.1496 7.82717L16.2646 6.82372C15.96 6.48531 15.579 6.35433 15.2081 6.29892C14.8676 6.24805 14.4479 6.25001 14 6.25001V7.75001ZM16.75 9.22223C16.75 8.71758 16.7513 8.2711 16.708 7.91295C16.6629 7.54062 16.559 7.15083 16.2646 6.82372L15.1496 7.82717C15.1523 7.83016 15.1609 7.8394 15.1731 7.87222C15.1873 7.91049 15.2048 7.97726 15.2188 8.09314C15.2487 8.34012 15.25 8.67932 15.25 9.22223H16.75ZM10 6.25001C9.55208 6.25001 9.13244 6.24805 8.79192 6.29892C8.42102 6.35433 8.04 6.48531 7.73542 6.82372L8.85036 7.82717C8.85228 7.82504 8.85204 7.82416 8.86242 7.81941C8.87904 7.81181 8.92168 7.79618 9.01354 7.78246C9.21765 7.75197 9.50511 7.75001 10 7.75001V6.25001ZM8.75 9.22223C8.75 8.67932 8.75129 8.34012 8.78118 8.09314C8.7952 7.97726 8.81273 7.91049 8.8269 7.87222C8.83905 7.8394 8.84767 7.83016 8.85036 7.82717L7.73542 6.82372C7.44103 7.15083 7.3371 7.54062 7.29204 7.91295C7.24871 8.2711 7.25 8.71758 7.25 9.22223H8.75ZM9.5 17.75H15V16.25H9.5V17.75Z" fill="black"/>
<path d="M2 12C2 7.28595 2 4.92893 3.46447 3.46447C4.92893 2 7.28595 2 12 2C16.714 2 19.0711 2 20.5355 3.46447C22 4.92893 22 7.28595 22 12C22 16.714 22 19.0711 20.5355 20.5355C19.0711 22 16.714 22 12 22C7.28595 22 4.92893 22 3.46447 20.5355C2 19.0711 2 16.714 2 12Z" stroke="black" stroke-width="1.5"/>
</svg>
