<svg width="24" height="24" viewBox="0 0 24 24" fill="none" xmlns="http://www.w3.org/2000/svg">
<path d="M12 22C7.28595 22 4.92893 22 3.46447 20.5355C2 19.0711 2 16.714 2 12C2 7.28595 2 4.92893 3.46447 3.46447C4.92893 2 7.28595 2 12 2C16.714 2 19.0711 2 20.5355 3.46447C22 4.92893 22 7.28595 22 12C22 16.714 22 19.0711 20.5355 20.5355C19.0711 22 16.714 22 12 22Z" fill="#FDE6CB" stroke="#FFFEF5" stroke-width="1.5"/>
<path d="M21.3979 7.27417L15.001 13.7615L20.8533 20.3851L21.7153 19.3416L21.3979 7.27417Z" fill="#FFEACE"/>
<path d="M14.0938 14.3887L6.67188 21.479H18.4672L20.3227 20.5514L14.0938 14.3887Z" fill="#B7DC95"/>
<path d="M14.0004 13.9993L20.5004 20.4993M14.0004 13.9993L6.39453 21.6053M14.0004 13.9993L21.6072 6.39258" stroke="#FFF2E2" stroke-width="1.5" stroke-linecap="round"/>
<path d="M4.37744 5.25081L5.13623 3.25057L9.68867 2.4917L9.20582 3.25057L8.44706 4.35411L8.10217 5.59572V7.73405H7.55034H5.89487L4.37744 6.49244V5.25081Z" fill="#E3E4B9"/>
<path d="M3.75342 20.9116C4.45503 20.6352 4.07194 19.3169 4.07231 18.1263C4.83774 15.4473 7.40036 15.7051 8.38507 14.1023C10.6937 10.3444 7.06818 5.34659 10.8525 3.08154C11.5521 2.6628 11.8955 2.13721 11.8955 2.13721" stroke="#9ECACE" stroke-width="2"/>
<path d="M12 22C7.28595 22 4.92893 22 3.46447 20.5355C2 19.0711 2 16.714 2 12C2 7.28595 2 4.92893 3.46447 3.46447C4.92893 2 7.28595 2 12 2C16.714 2 19.0711 2 20.5355 3.46447C22 4.92893 22 7.28595 22 12C22 16.714 22 19.0711 20.5355 20.5355C19.0711 22 16.714 22 12 22Z" stroke="#FFFEF5" stroke-width="1.5"/>
<path d="M12.415 8.00752C12.415 6.66904 13.5717 5.40869 15.0044 5.40869C16.4371 5.40869 17.5977 6.66904 17.5977 8.00752C17.5977 9.31342 16.5732 10.5913 15.0045 10.5913C13.4357 10.5913 12.415 9.33551 12.415 8.00752Z" fill="white"/>
<path d="M15.0049 4.65869C16.871 4.65894 18.3475 6.27457 18.3477 8.00732C18.3477 9.68045 17.033 11.3411 15.0049 11.3413C12.979 11.3413 11.665 9.70531 11.665 8.00732C11.6651 6.27589 13.1372 4.65869 15.0049 4.65869Z" stroke="#679BFF" stroke-opacity="0.34" stroke-width="1.5"/>
<path d="M17.2227 8C17.2227 9.22753 16.2275 10.2227 15 10.2227C13.7725 10.2227 12.7773 9.22753 12.7773 8C12.7773 6.77247 13.7725 5.77734 15 5.77734C16.2275 5.77734 17.2227 6.77247 17.2227 8Z" fill="#679BFF"/>
</svg>
