<svg width="24" height="24" viewBox="0 0 24 24" fill="none" xmlns="http://www.w3.org/2000/svg">
<path d="M4.5 3L5.5 2.5V7M4.5 7H5.5M6.5 7H5.5" stroke="white" stroke-width="1.25" stroke-linecap="round" stroke-linejoin="round"/>
<path d="M4.5 10.5C4.50002 9.49998 4.5 9.5 5.5 9.5C6.5 9.5 6.5 9.5 6.5 10.5C6.5 11.5 4.5 14 4.5 14H6.5" stroke="white" stroke-width="1.25" stroke-linecap="round" stroke-linejoin="round"/>
<path d="M4.5 17.5C4.50002 16.5 4.5 16.5 5.5 16.5C6.5 16.5 6.5 16.5 6.5 17.5C6.5 18.5 5.5 19 5.5 19C5.5 19 6.5 19.5 6.5 20.5C6.5 21.5 6.5 21.5 5.5 21.5C4.5 21.5 4.5 21.5 4.5 20.5" stroke="white" stroke-width="1.25" stroke-linecap="round" stroke-linejoin="round"/>
<path d="M22 19H12" stroke="white" stroke-width="1.5" stroke-linecap="round"/>
<path d="M22 12H12" stroke="white" stroke-width="1.5" stroke-linecap="round"/>
<path d="M22 5H12" stroke="white" stroke-width="1.5" stroke-linecap="round"/>
</svg>
